HIERARCHY
ROOT Hips
{
  OFFSET 13.6774 106.653 -34.4427
  CHANNELS 6 Xposition Yposition Zposition Zrotation Xrotation Yrotation
  JOINT ToSpine
  {
    OFFSET -2.69724 7.43032 -0.144315
    CHANNELS 3 Zrotation Xrotation Yrotation
    JOINT Spine
    {
      OFFSET -0.0310711 10.7595 1.96963
      CHANNELS 3 Zrotation Xrotation Yrotation
      JOINT Spine1
      {
        OFFSET 19.9056 3.91189 0.764692
        CHANNELS 3 Zrotation Xrotation Yrotation
        JOINT Neck
        {
          OFFSET 25.9749 7.03908 -0.130764
          CHANNELS 3 Zrotation Xrotation Yrotation
          JOINT Head
          {
            OFFSET 9.52751 0.295786 -0.907742
            CHANNELS 3 Zrotation Xrotation Yrotation
            End Site
            {
              OFFSET 16.4037 0.713936 2.7358
            }
          }
        }
        JOINT LeftShoulder
        {
          OFFSET 17.7449 4.33886 11.7777
          CHANNELS 3 Zrotation Xrotation Yrotation
          JOINT LeftArm
          {
            OFFSET 0.911315 1.27913 9.80584
            CHANNELS 3 Zrotation Xrotation Yrotation
            JOINT LeftForeArm
            {
              OFFSET 28.6126 1.18197 -3.53199
              CHANNELS 3 Zrotation Xrotation Yrotation
              JOINT LeftHand
              {
                OFFSET 27.5088 0.0218783 0.327423
                CHANNELS 3 Zrotation Xrotation Yrotation
                End Site
                {
                  OFFSET 18.6038 -0.000155887 0.382096
                }
              }
            }
          }
        }
        JOINT RightShoulder
        {
          OFFSET 17.1009 2.89543 -12.2328
          CHANNELS 3 Zrotation Xrotation Yrotation
          JOINT RightArm
          {
            OFFSET 1.4228 0.178766 -10.211
            CHANNELS 3 Zrotation Xrotation Yrotation
            JOINT RightForeArm
            {
              OFFSET 28.733 1.87905 2.64907
              CHANNELS 3 Zrotation Xrotation Yrotation
              JOINT RightHand
              {
                OFFSET 27.4588 0.290562 -0.101845
                CHANNELS 3 Zrotation Xrotation Yrotation
                End Site
                {
                  OFFSET 17.8396 -0.255518 -0.000602873
                }
              }
            }
          }
        }
      }
    }
  }
  JOINT LeftUpLeg
  {
    OFFSET -5.61296 -2.22332 -10.2353
    CHANNELS 3 Zrotation Xrotation Yrotation
    JOINT LeftLeg
    {
      OFFSET 2.56703 -44.7417 -7.93097
      CHANNELS 3 Zrotation Xrotation Yrotation
      JOINT LeftFoot
      {
        OFFSET 3.16933 -46.5642 -3.96578
        CHANNELS 3 Zrotation Xrotation Yrotation
        JOINT LeftToeBase
        {
          OFFSET 0.346054 -6.02161 12.8035
          CHANNELS 3 Zrotation Xrotation Yrotation
          End Site
          {
            OFFSET 0.134235 -1.35082 5.13018
          }
        }
      }
    }
  }
  JOINT RightUpLeg
  {
    OFFSET -5.7928 -1.72406 10.6446
    CHANNELS 3 Zrotation Xrotation Yrotation
    JOINT RightLeg
    {
      OFFSET -2.57161 -44.7178 -7.85259
      CHANNELS 3 Zrotation Xrotation Yrotation
      JOINT RightFoot
      {
        OFFSET -3.10148 -46.5936 -4.03391
        CHANNELS 3 Zrotation Xrotation Yrotation
        JOINT RightToeBase
        {
          OFFSET -0.0828122 -6.13587 12.8035
          CHANNELS 3 Zrotation Xrotation Yrotation
          End Site
          {
            OFFSET -0.131328 -1.35082 5.13018
          }
        }
      }
    }
  }
}
MOTION
Frames: 15
Frame Time: 0.03333333333333333
0.0000 93.1000 0.0000 -60.2765 -11.6756 122.8941 -71.0714 0.1273 88.1047 114.4830 65.0942 -27.3599 -10.1855 20.6772 -9.0164 -156.2161 4.2345 -142.1532 -151.2711 40.9575 -176.0902 -0.0905 -13.8881 -37.8445 -119.9736 7.1601 -55.2629 -6.1937 -7.6175 -36.9096 0.7968 -1.1227 -3.8306 -1.5240 6.6435 26.7378 -55.2856 -27.2621 97.3014 -19.5685 -9.9703 114.2974 -0.1217 0.0075 0.1121 -22.2697 35.7584 68.8298 -59.9749 81.8313 27.5436 -4.7840 -18.4221 -2.0496 17.1066 -30.6558 15.5575 -9.2493 -37.3286 118.5677 -4.4945 33.4704 -6.8829 -7.7239 -11.2796 1.1861 2.8182 0.6104 -17.5010 
0.0000 93.1000 0.0000 -61.6535 -12.3234 124.1985 -71.1274 0.1151 88.1026 121.7926 64.9025 -33.9591 -10.8009 21.6996 -9.8587 -155.0049 5.0366 -143.7751 -149.3556 41.4499 -178.6749 -0.0778 -14.1696 -38.1486 -120.9494 6.9777 -57.3071 -5.6274 -6.6077 -39.3180 1.0493 -1.1723 -3.3970 -1.7278 7.6300 26.0719 -55.3048 -24.6808 105.4636 -16.2811 -7.4617 112.7086 0.2076 -0.2220 0.3121 -11.2943 33.8612 71.8379 -144.7634 78.1754 112.6967 -4.0312 -17.8317 -2.0667 17.4634 -30.4124 15.9318 -10.3544 -36.7917 111.5010 -4.0548 34.0728 -3.6186 -8.5173 -11.3581 1.2233 3.0068 -0.8313 -17.6395 
0.0000 93.1000 0.0000 -61.8482 -11.7632 127.9650 -71.1327 0.1149 88.1273 123.2237 65.2447 -36.1545 -11.1602 22.7008 -9.4274 -153.5924 5.8073 -143.4922 -148.9737 42.3230 -177.3997 -0.2511 -14.6627 -38.9944 -122.4476 6.2776 -58.3632 -6.0910 -6.0372 -43.4800 0.6214 -1.0853 -3.1131 -1.8777 7.8611 25.9828 -55.0469 -21.8585 112.7059 -10.9694 -4.5027 110.6719 0.0989 -0.2357 -0.0457 -4.0945 31.8765 80.2414 -159.9263 69.9441 124.7889 -4.1160 -15.2055 -1.8490 19.0711 -32.2214 21.3274 -11.3787 -37.0556 106.5019 -1.8281 33.8774 -3.2745 -8.6303 -11.4256 1.4086 2.1951 -1.3990 -17.0877 
0.0000 93.1000 0.0000 -60.5411 -11.7397 131.2836 -71.1415 0.0980 88.1270 124.2342 65.6245 -35.2517 -10.6579 23.9430 -10.4624 -154.1927 5.7722 -145.1955 -150.7946 42.2344 -176.5926 -0.2955 -14.5942 -39.6182 -123.4110 5.4917 -58.3279 -5.5542 -6.1132 -48.1793 0.0547 -1.0190 -2.6184 -1.9349 8.6627 25.1698 -55.0263 -19.4874 120.4425 -5.0581 -2.0026 107.3335 0.3239 -0.2029 0.2733 -0.0129 29.0170 91.1518 -161.1937 65.6427 124.1686 -4.2591 -12.8609 -1.6202 20.7397 -33.8610 24.6994 -13.8417 -36.8810 98.9508 -1.3213 33.7925 -0.1866 -8.8083 -12.0057 1.5549 2.8024 -4.3081 -21.0440 
0.0000 93.1000 0.0000 -60.9134 -9.7402 136.5827 -71.1681 0.0849 88.0969 129.6455 65.3019 -37.2810 -10.4003 25.3164 -11.8623 -152.5788 6.5769 -147.1827 -150.5336 42.1088 -176.2287 -0.1699 -14.3929 -39.7833 -124.7930 5.4834 -57.3672 -6.2671 -5.4806 -53.7486 0.4749 -0.9329 -1.6203 -1.8024 9.6848 23.7954 -54.5896 -17.8905 127.4174 -1.5820 -1.0878 104.2384 0.4401 -0.2580 0.3551 -0.0858 26.1779 101.0096 -160.0336 67.7994 119.2478 -6.2549 -10.1844 -0.9378 20.4670 -33.5141 23.3529 -19.8196 -36.0257 89.9148 0.6549 32.6800 0.3731 -10.0671 -11.6219 1.3246 3.7915 -6.5597 -22.8467 
0.0000 93.1000 0.0000 -62.9033 -9.1410 140.4872 -71.1794 0.0941 88.0645 134.4351 65.1559 -41.3919 -10.5457 25.9906 -12.0139 -150.4756 6.8873 -147.8753 -149.4314 42.3437 -174.4547 -0.0903 -13.5287 -39.1982 -125.3452 5.8928 -55.4706 -4.7389 -3.1363 -62.0468 0.9306 -0.7290 -0.4972 -1.7032 10.3156 23.7677 -53.9324 -16.7417 132.5847 1.4139 0.6080 102.2854 0.4409 -0.1756 0.1861 -4.6384 22.2345 109.5313 -151.1738 74.8365 108.6655 -9.7165 -5.5539 0.0774 18.8109 -32.1599 18.1492 -25.7777 -32.6907 83.5341 -0.0217 33.2787 -0.2951 -9.7431 -12.8316 1.1675 3.5273 -4.6404 -23.4907 
0.0000 93.1000 0.0000 -63.7192 -7.9926 146.0592 -71.1589 0.0908 88.0478 136.4741 65.1326 -41.5189 -10.5584 26.0080 -11.3535 -149.1122 7.3612 -149.1154 -149.0421 42.6514 -173.9010 -0.0323 -12.8895 -37.8205 -125.2332 6.0482 -54.5225 -1.2698 -1.1153 -69.6878 1.0329 -0.5912 0.1759 -1.5245 10.2940 23.9340 -54.0687 -15.6131 135.3072 3.1308 0.1466 102.9552 0.4062 -0.0715 0.1519 -9.7939 18.0900 114.9717 -106.0757 82.4434 61.2112 -14.7306 -0.2046 1.3681 16.9997 -30.9135 14.5733 -29.6939 -27.8846 80.4360 1.6827 35.3817 -2.4159 -9.9559 -14.7360 1.2480 3.3971 -2.9050 -22.3685 
0.0000 93.1000 0.0000 -65.5189 -7.2421 152.5910 -71.1115 -0.0209 88.0660 134.1188 66.4243 -38.0350 -9.5579 26.5517 -11.1005 -147.4530 6.9620 -151.8173 -148.7302 42.3673 -173.8112 0.4246 -12.8250 -35.9201 -124.4350 6.3339 -54.2908 1.9467 -0.1290 -75.6180 0.6958 -0.9474 1.5004 -1.3220 10.2359 22.6923 -54.8194 -16.9302 137.9134 4.4997 0.9279 103.6403 0.2869 -0.5116 0.2891 -16.1095 12.9848 115.0253 -24.9895 76.5002 -21.9752 -19.3166 3.5387 3.0387 13.4908 -27.7430 11.9093 -33.8159 -23.0225 77.2523 1.6301 36.3181 -5.8755 -8.7071 -16.4216 0.9433 3.0959 -2.2172 -22.0347 
0.0000 93.1000 0.0000 -65.5645 -7.4819 156.9683 -71.0891 0.0007 88.0682 133.0241 68.3928 -35.2637 -8.3418 27.1925 -10.4290 -146.5253 7.6723 -154.8423 -148.1876 42.4752 -175.8557 0.3174 -12.7514 -35.1670 -122.9970 6.4082 -56.7335 5.8953 -0.1223 -80.8669 0.7012 -0.6755 2.4799 -1.2468 9.7166 20.0683 -53.8158 -18.8718 141.2575 6.0542 1.0219 105.0949 0.7209 -0.3642 0.1439 -23.0000 7.0164 111.8757 -10.9552 63.7001 -33.5146 -21.8435 5.1243 3.6239 10.0563 -21.6627 9.1626 -39.1966 -18.9966 72.8036 0.4685 35.5428 -6.8493 -4.4431 -17.0577 0.6175 2.4280 -0.6877 -18.4799 
0.0000 93.1000 0.0000 -68.7958 -7.8866 160.9459 -71.0710 0.0918 88.0590 128.8884 69.4214 -32.2370 -6.3412 26.8292 -8.9994 -146.5739 7.8781 -156.1013 -147.9921 42.8191 -172.9449 -0.0293 -12.5806 -33.6129 -123.3013 6.2331 -58.5441 8.7313 -0.3272 -85.0156 0.2178 -0.1044 2.9729 -1.0872 9.2444 17.3335 -51.8458 -21.2938 144.3910 9.1018 3.4791 106.3297 0.7644 0.1610 0.2064 -30.6609 4.2099 109.2544 -6.8611 51.6161 -34.1542 -23.4235 5.8017 3.4969 8.8040 -19.3725 5.5193 -42.7475 -15.9238 67.6649 0.5830 36.2838 -6.1018 -2.7868 -13.5779 0.5130 2.2334 -4.6335 -12.5401 
0.0000 93.1000 0.0000 -69.3900 -7.6024 165.1172 -71.0672 0.0787 88.0792 124.0715 69.9208 -28.3873 -4.5027 25.8295 -7.0725 -147.5963 7.2663 -156.8639 -148.1064 42.0345 -172.7317 0.2220 -12.5779 -32.0026 -124.5464 5.1311 -58.7519 9.1973 -0.3989 -88.0465 -0.0704 -0.0522 3.9401 -1.0708 9.1471 18.0801 -52.1501 -21.8704 144.5269 13.0477 4.6446 108.2515 0.4202 -0.0234 -0.0112 -37.0182 2.9623 107.6241 -4.4511 42.3784 -30.4132 -21.6591 5.6805 3.2263 6.3380 -17.3142 3.0512 -44.0847 -13.0662 64.8924 0.6045 39.9808 -0.1153 -2.6494 -4.1171 0.0234 2.4711 -16.8601 -8.8900 
0.0000 93.1000 0.0000 -70.2237 -8.0043 168.9989 -71.0524 0.0844 88.0757 119.7937 70.1209 -26.0286 -3.7121 24.8293 -5.9510 -145.5393 6.1614 -158.5224 -147.5241 41.3616 -173.3233 0.2525 -12.9678 -30.7721 -126.6051 4.0050 -57.6295 9.0649 -0.1109 -90.0613 -0.5194 0.0432 4.4135 -1.1827 8.5008 20.2753 -52.0022 -21.1872 144.3392 13.9806 5.2824 109.0078 0.3161 -0.0629 -0.4162 -42.1650 2.9386 107.4764 -3.6543 35.5887 -25.4191 -21.3774 5.0718 3.1178 7.0004 -16.2067 -0.4727 -43.7020 -12.0775 64.4763 2.7068 47.2349 6.4101 1.8697 4.0090 -1.0202 1.8230 -16.0593 -7.8943 
0.0000 93.1000 0.0000 -71.1712 -7.4726 173.2825 -71.0419 0.0339 88.0652 117.5031 70.0717 -24.2819 -4.1259 23.9205 -4.4247 -142.5607 5.8741 -161.0142 -147.8524 41.0404 -173.3360 0.4141 -13.3338 -29.7985 -127.1109 2.3233 -59.4615 11.0607 -1.3488 -90.8218 -0.6608 -0.1519 4.6784 -1.3503 7.8227 22.7488 -51.9658 -20.1988 143.3084 14.4362 5.0777 109.1622 0.2759 -0.2511 -0.0077 -46.2406 4.0083 108.8886 -2.8820 33.1928 -21.1246 -19.3893 4.5900 2.8618 6.5833 -15.5484 -3.0996 -42.0258 -11.9614 67.7745 4.8724 54.9709 12.3381 6.8009 5.4421 -1.8115 2.2847 -14.1933 -16.7298 
0.0000 93.1000 0.0000 -72.3545 -9.8708 176.5983 -71.0438 0.1119 88.0329 112.7388 70.3023 -21.2124 -4.0681 23.3726 -1.9945 -140.5905 5.5671 -163.6056 -146.8634 40.6800 -174.8617 0.0200 -12.8441 -28.9739 -129.4997 3.0741 -63.7905 13.9698 -1.4486 -89.4683 0.0351 0.2852 4.5778 -1.7051 7.1423 25.3380 -52.0263 -20.5371 143.7070 12.8545 5.3605 110.3472 -0.1225 0.2640 0.3662 -47.1854 6.0322 111.3908 -2.6639 32.2050 -15.6785 -13.8603 0.4741 1.1754 4.1800 -10.0033 -0.0099 -40.9096 -13.2849 72.9652 6.0117 58.2613 11.6651 5.3094 3.3536 -0.9301 3.0746 -19.8904 -24.1483 
0.0000 93.1000 0.0000 -72.4073 -10.3967 -179.8560 -71.0759 0.0381 88.0430 108.6698 70.2145 -16.6072 -4.2540 22.2557 -0.8647 -140.5000 6.1425 -166.0589 -146.1501 39.9840 -175.7753 -0.1890 -12.5948 -29.1974 -131.2926 3.0364 -69.7027 16.2546 0.5547 -87.2118 1.4276 0.3626 2.8071 -1.4463 7.2882 26.0158 -51.5904 -21.6875 146.7330 13.9700 5.4980 110.1742 -0.3748 0.2236 -0.1408 -46.6535 8.7601 111.6763 -2.5761 31.2785 -11.9725 -7.1672 -3.2503 -0.1013 2.8185 -7.5552 4.1385 -41.3867 -14.0470 76.6444 4.8548 56.8264 5.4218 1.2887 1.0174 -0.3903 1.1558 -23.3757 -25.0999 
